<svg width="26" height="26" viewBox="0 0 26 26" fill="#8D8D8F" xmlns="http://www.w3.org/2000/svg">
<g clip-path="url(#clip0_109_1778)">
<path d="M21.1542 16.4544C21.0156 16.7686 20.9742 17.1171 21.0355 17.455C21.0967 17.793 21.2578 18.1048 21.498 18.3503L21.5605 18.4128C21.7542 18.6062 21.9078 18.836 22.0127 19.0889C22.1175 19.3418 22.1715 19.6129 22.1715 19.8867C22.1715 20.1605 22.1175 20.4316 22.0127 20.6845C21.9078 20.9374 21.7542 21.1672 21.5605 21.3607C21.367 21.5544 21.1372 21.708 20.8843 21.8129C20.6314 21.9177 20.3603 21.9717 20.0865 21.9717C19.8127 21.9717 19.5416 21.9177 19.2887 21.8129C19.0358 21.708 18.806 21.5544 18.6125 21.3607L18.55 21.2982C18.3045 21.058 17.9927 20.8969 17.6548 20.8357C17.3169 20.7744 16.9684 20.8158 16.6542 20.9544C16.3461 21.0865 16.0834 21.3057 15.8983 21.5852C15.7132 21.8647 15.6139 22.1921 15.6125 22.5273V22.7044C15.6125 23.257 15.3931 23.7869 15.0024 24.1776C14.6117 24.5683 14.0817 24.7878 13.5292 24.7878C12.9767 24.7878 12.4468 24.5683 12.0561 24.1776C11.6654 23.7869 11.4459 23.257 11.4459 22.7044V22.6107C11.4378 22.2659 11.3262 21.9315 11.1256 21.651C10.9249 21.3705 10.6446 21.1568 10.3209 21.0378C10.0067 20.8991 9.65818 20.8577 9.32027 20.919C8.98236 20.9803 8.67055 21.1414 8.42505 21.3815L8.36255 21.444C8.16906 21.6377 7.93929 21.7914 7.68638 21.8962C7.43347 22.0011 7.16237 22.055 6.88859 22.055C6.61481 22.055 6.34371 22.0011 6.0908 21.8962C5.83789 21.7914 5.60812 21.6377 5.41463 21.444C5.22093 21.2505 5.06727 21.0208 4.96242 20.7678C4.85758 20.5149 4.80362 20.2438 4.80362 19.9701C4.80362 19.6963 4.85758 19.4252 4.96242 19.1723C5.06727 18.9193 5.22093 18.6896 5.41463 18.4961L5.47713 18.4336C5.71727 18.1881 5.87837 17.8763 5.93964 17.5384C6.00091 17.2005 5.95954 16.8519 5.82088 16.5378C5.68884 16.2297 5.46959 15.9669 5.19012 15.7818C4.91065 15.5968 4.58316 15.4974 4.24797 15.4961H4.07088C3.51835 15.4961 2.98844 15.2766 2.59774 14.8859C2.20704 14.4952 1.98755 13.9653 1.98755 13.4128C1.98755 12.8602 2.20704 12.3303 2.59774 11.9396C2.98844 11.5489 3.51835 11.3294 4.07088 11.3294H4.16463C4.50942 11.3214 4.8438 11.2098 5.12432 11.0091C5.40483 10.8085 5.6185 10.5281 5.73755 10.2044C5.87621 9.89024 5.91757 9.54173 5.8563 9.20381C5.79503 8.8659 5.63394 8.55409 5.3938 8.30859L5.3313 8.24609C5.1376 8.05261 4.98393 7.82284 4.87909 7.56993C4.77425 7.31701 4.72028 7.04592 4.72028 6.77214C4.72028 6.49835 4.77425 6.22726 4.87909 5.97434C4.98393 5.72143 5.1376 5.49166 5.3313 5.29818C5.52478 5.10448 5.75455 4.95081 6.00746 4.84597C6.26038 4.74113 6.53147 4.68716 6.80526 4.68716C7.07904 4.68716 7.35014 4.74113 7.60305 4.84597C7.85596 4.95081 8.08573 5.10448 8.27922 5.29818L8.34172 5.36068C8.58721 5.60082 8.89902 5.76191 9.23694 5.82318C9.57485 5.88445 9.92337 5.84309 10.2375 5.70443H10.3209C10.629 5.57238 10.8917 5.35313 11.0768 5.07366C11.2619 4.79419 11.3612 4.4667 11.3625 4.13151V3.95443C11.3625 3.40189 11.582 2.87199 11.9727 2.48129C12.3634 2.09059 12.8933 1.87109 13.4459 1.87109C13.9984 1.87109 14.5283 2.09059 14.919 2.48129C15.3097 2.87199 15.5292 3.40189 15.5292 3.95443V4.04818C15.5306 4.38337 15.6299 4.71086 15.815 4.99033C16 5.2698 16.2628 5.48905 16.5709 5.62109C16.8851 5.75976 17.2336 5.80112 17.5715 5.73985C17.9094 5.67858 18.2212 5.51749 18.4667 5.27734L18.5292 5.21484C18.7227 5.02114 18.9525 4.86748 19.2054 4.76264C19.4583 4.65779 19.7294 4.60383 20.0032 4.60383C20.277 4.60383 20.5481 4.65779 20.801 4.76264C21.0539 4.86748 21.2836 5.02114 21.4771 5.21484C21.6708 5.40833 21.8245 5.6381 21.9293 5.89101C22.0342 6.14392 22.0881 6.41502 22.0881 6.6888C22.0881 6.96258 22.0342 7.23368 21.9293 7.48659C21.8245 7.73951 21.6708 7.96927 21.4771 8.16276L21.4146 8.22526C21.1745 8.47076 21.0134 8.78257 20.9521 9.12048C20.8909 9.45839 20.9322 9.80691 21.0709 10.1211V10.2044C21.2029 10.5125 21.4222 10.7753 21.7016 10.9604C21.9811 11.1454 22.3086 11.2448 22.6438 11.2461H22.8209C23.3734 11.2461 23.9033 11.4656 24.294 11.8563C24.6847 12.247 24.9042 12.7769 24.9042 13.3294C24.9042 13.882 24.6847 14.4119 24.294 14.8026C23.9033 15.1933 23.3734 15.4128 22.8209 15.4128H22.7271C22.3919 15.4141 22.0644 15.5134 21.785 15.6985C21.5055 15.8836 21.2863 16.1463 21.1542 16.4544Z" stroke-width="2" stroke-linecap="round" stroke-linejoin="round"/>
<path d="M13.4458 16.4541C15.1717 16.4541 16.5708 15.055 16.5708 13.3291C16.5708 11.6032 15.1717 10.2041 13.4458 10.2041C11.7199 10.2041 10.3208 11.6032 10.3208 13.3291C10.3208 15.055 11.7199 16.4541 13.4458 16.4541Z" fill="#F6F6F6" stroke="#F6F6F6" stroke-width="2" stroke-linecap="round" stroke-linejoin="round"/>
</g>
<defs>
<clipPath id="clip0_109_1778">
<rect width="25" height="25" transform="translate(0.945801 0.829102)"/>
</clipPath>
</defs>
</svg>
